{"glyphs":{":":{"x_min":0,"x_max":217,"ha":217,"o":"m 109 402 q 86 402 71 418 q 55 435 55 457 q 55 479 71 495 q 86 511 109 511 q 132 511 148 495 q 164 479 164 457 q 164 435 148 418 q 132 402 109 402 z m 109 -11 q 86 -11 71 5 q 55 21 55 44 q 55 66 71 83 q 86 99 109 99 q 132 99 148 83 q 164 66 164 44 q 164 21 148 5 q 132 -11 109 -11 z"},"$":{"x_min":0,"x_max":539,"ha":539,"o":"m 301 4 l 301 -102 l 250 -102 l 250 0 q 146 0 81 42 l 81 127 q 109 102 158 85 q 208 68 250 68 l 250 318 q 143 370 111 414 q 79 458 79 517 q 79 588 127 639 q 176 691 250 701 l 250 789 l 301 789 l 301 703 q 396 700 433 676 l 433 593 q 383 632 301 635 l 301 377 q 402 329 440 283 q 477 238 477 181 q 477 111 430 64 q 384 17 301 4 z m 250 404 l 250 632 q 209 624 185 595 q 161 567 161 527 q 161 485 181 458 q 200 432 250 404 z m 301 293 l 301 72 q 395 93 395 174 q 395 241 301 293 z"},"?":{"x_min":0,"x_max":448,"ha":448,"o":"m 164 194 q 159 207 156 227 q 152 248 152 268 q 152 299 165 324 q 177 349 196 371 q 214 393 236 413 q 258 434 277 454 q 295 475 308 498 q 320 521 320 548 q 320 571 311 589 q 302 607 287 620 q 271 632 250 638 q 230 644 207 644 q 125 644 64 579 l 64 665 q 139 712 219 712 q 256 712 289 702 q 321 692 346 673 q 371 654 385 625 q 399 596 399 558 q 399 522 386 494 q 374 465 354 442 q 335 418 312 397 q 290 377 271 357 q 251 336 239 314 q 226 292 226 266 q 226 244 231 225 q 237 207 242 194 z m 208 -9 q 186 -9 169 7 q 153 22 153 45 q 153 68 169 83 q 186 99 208 99 q 229 99 246 83 q 262 68 262 45 q 262 22 246 7 q 229 -9 208 -9 z"},"<":{"x_min":0,"x_max":684,"ha":684,"o":"m 553 62 l 133 273 l 133 302 l 553 537 l 553 464 l 239 290 l 239 288 l 553 135 z"},"'":{"x_min":0,"x_max":230,"ha":230,"o":"m 158 700 l 143 482 l 87 482 l 72 700 z"},"=":{"x_min":0,"x_max":684,"ha":684,"o":"m 572 363 l 113 363 l 113 428 l 572 428 z m 572 155 l 113 155 l 113 220 l 572 220 z"},"a":{"x_min":0,"x_max":509,"ha":509,"o":"m 439 0 l 359 0 l 359 78 l 357 78 q 305 -12 203 -12 q 128 -12 86 28 q 44 67 44 133 q 44 273 209 296 l 359 317 q 359 444 256 444 q 166 444 93 383 l 93 465 q 167 512 263 512 q 439 512 439 325 z m 359 253 l 238 236 q 183 229 154 209 q 126 189 126 139 q 126 102 152 79 q 178 56 222 56 q 281 56 320 97 q 359 139 359 203 z"},"L":{"x_min":0,"x_max":471,"ha":471,"o":"m 455 0 l 92 0 l 92 700 l 174 700 l 174 74 l 455 74 z"},"3":{"x_min":0,"x_max":539,"ha":539,"o":"m 465 198 q 465 151 448 112 q 430 73 397 46 q 365 18 319 3 q 274 -12 219 -12 q 119 -12 60 26 l 60 112 q 131 56 222 56 q 259 56 288 65 q 318 75 339 92 q 360 110 372 135 q 383 160 383 191 q 383 328 188 328 l 130 328 l 130 396 l 185 396 q 358 396 358 525 q 358 644 226 644 q 152 644 87 594 l 87 672 q 154 712 246 712 q 290 712 326 700 q 361 688 387 666 q 412 644 426 613 q 440 582 440 545 q 440 407 300 367 l 300 365 q 336 361 366 348 q 396 334 418 313 q 440 292 453 262 q 465 233 465 198 z"},";":{"x_min":0,"x_max":217,"ha":217,"o":"m 110 402 q 87 402 72 418 q 56 435 56 457 q 56 479 72 495 q 87 511 110 511 q 133 511 149 495 q 165 479 165 457 q 165 435 149 418 q 133 402 110 402 z m 154 111 l 76 -129 l 19 -129 l 76 111 z"},"J":{"x_min":0,"x_max":357,"ha":357,"o":"m 271 251 q 271 126 218 57 q 166 -12 77 -12 q 36 -12 10 0 l 10 81 q 36 62 78 62 q 189 62 189 250 l 189 700 l 271 700 z"},"V":{"x_min":0,"x_max":621,"ha":621,"o":"m 612 700 l 353 0 l 263 0 l 9 700 l 100 700 l 294 145 q 303 118 308 83 l 310 83 q 314 112 326 146 l 524 700 z"},"\"":{"x_min":0,"x_max":392,"ha":392,"o":"m 158 700 l 143 482 l 87 482 l 72 700 z m 320 700 l 305 482 l 249 482 l 234 700 z"},"7":{"x_min":0,"x_max":539,"ha":539,"o":"m 493 654 q 477 626 454 584 q 432 543 406 491 q 381 439 354 380 q 328 320 305 257 q 282 193 265 128 q 248 63 240 0 l 154 0 q 163 62 181 128 q 199 193 222 256 q 246 318 271 376 q 297 435 322 483 q 346 532 366 570 q 387 607 399 628 l 48 628 l 48 700 l 493 700 z"},"S":{"x_min":0,"x_max":531,"ha":531,"o":"m 59 28 l 59 125 q 76 110 99 99 q 122 87 148 79 q 173 71 199 66 q 225 62 247 62 q 323 62 360 90 q 397 118 397 171 q 397 199 385 220 q 373 241 351 259 q 329 276 299 292 q 269 308 234 325 q 197 344 166 363 q 134 382 110 405 q 87 428 73 457 q 60 486 60 525 q 60 573 81 608 q 102 644 136 667 q 170 689 214 701 q 258 712 303 712 q 407 712 454 687 l 454 595 q 392 638 295 638 q 268 638 241 632 q 214 626 193 614 q 172 601 159 581 q 146 561 146 532 q 146 505 156 486 q 166 466 186 450 q 205 434 233 419 q 261 404 298 386 q 335 367 369 347 q 403 326 428 301 q 454 276 469 246 q 483 216 483 177 q 483 125 463 89 q 443 53 408 31 q 374 8 329 -2 q 284 -12 234 -12 q 218 -12 193 -9 q 169 -6 144 -1 q 118 4 95 11 q 73 19 59 28 z"},"}":{"x_min":0,"x_max":302,"ha":302,"o":"m 258 242 q 182 237 182 139 l 182 -8 q 182 -157 32 -159 l 32 -98 q 75 -97 93 -73 q 110 -50 110 4 l 110 145 q 110 248 183 270 l 183 272 q 110 295 110 398 l 110 541 q 110 636 32 638 l 32 700 q 182 698 182 547 l 182 404 q 182 304 258 299 z"},"Z":{"x_min":0,"x_max":570,"ha":570,"o":"m 549 681 l 139 74 l 539 74 l 539 0 l 16 0 l 16 23 l 423 626 l 49 626 l 49 700 l 549 700 z"},"x":{"x_min":0,"x_max":459,"ha":459,"o":"m 446 500 l 278 247 l 443 0 l 350 0 l 252 162 q 243 177 230 200 l 228 200 q 226 196 205 162 l 105 0 l 13 0 l 183 245 l 20 500 l 113 500 l 210 329 q 221 310 231 290 l 233 290 l 358 500 z"},")":{"x_min":0,"x_max":302,"ha":302,"o":"m 83 -159 l 12 -159 q 164 23 164 268 q 164 515 11 700 l 83 700 q 235 521 235 267 q 235 14 83 -159 z"},"&":{"x_min":0,"x_max":800,"ha":800,"o":"m 706 -11 q 678 -11 656 -4 q 635 4 617 18 q 599 32 582 52 q 565 72 547 97 q 527 76 502 57 q 476 37 445 22 q 414 7 376 -2 q 339 -11 296 -11 q 243 -11 199 2 q 155 15 124 41 q 93 66 75 104 q 58 142 58 190 q 58 265 101 318 q 143 371 221 405 q 206 416 191 430 q 177 444 165 463 q 154 481 147 503 q 140 525 140 552 q 140 590 154 620 q 167 650 192 670 q 216 691 250 701 q 283 712 321 712 q 359 712 391 701 q 422 691 445 671 q 468 652 480 625 q 493 597 493 563 q 493 505 460 466 q 426 427 359 400 q 393 387 420 368 q 448 349 471 325 q 494 302 514 275 q 534 248 554 219 q 593 274 613 341 q 633 407 633 480 q 633 499 631 515 q 629 531 625 547 l 703 547 q 707 531 707 517 q 708 502 709 482 q 709 438 700 393 q 690 348 675 306 q 659 264 638 226 q 618 188 595 156 q 612 132 626 115 q 640 98 655 86 q 669 74 684 69 q 700 63 719 63 q 734 63 749 67 q 764 71 780 77 l 780 2 q 763 -4 743 -8 q 724 -11 706 -11 z m 296 58 q 333 58 364 66 q 396 74 422 88 q 448 101 470 119 q 491 137 509 156 q 479 203 454 236 q 429 269 403 292 q 377 316 348 333 q 319 351 281 365 q 250 353 225 338 q 199 323 180 303 q 161 283 150 256 q 140 229 140 193 q 140 160 152 134 q 164 109 185 92 q 207 75 235 67 q 263 58 296 58 z m 418 557 q 418 581 409 598 q 400 615 386 626 q 372 638 355 643 q 338 648 321 648 q 273 648 245 622 q 216 596 216 552 q 216 532 222 514 q 228 497 239 481 q 250 466 265 455 q 279 443 296 435 q 357 456 388 485 q 418 513 418 557 z"},"_":{"x_min":0,"x_max":415,"ha":415,"o":"m 415 -145 l 0 -145 l 0 -87 l 415 -87 z"},"v":{"x_min":0,"x_max":479,"ha":479,"o":"m 474 500 l 275 0 l 196 0 l 7 500 l 95 500 l 222 137 q 236 97 239 67 l 241 67 q 246 104 257 135 l 390 500 z"},"O":{"x_min":0,"x_max":754,"ha":754,"o":"m 374 -12 q 225 -12 135 86 q 46 185 46 342 q 46 511 137 611 q 229 712 386 712 q 531 712 619 614 q 708 517 708 359 q 708 188 617 88 q 526 -12 374 -12 z m 380 638 q 270 638 201 558 q 132 479 132 349 q 132 220 199 141 q 266 62 374 62 q 489 62 556 137 q 622 212 622 348 q 622 486 558 562 q 493 638 380 638 z"},"(":{"x_min":0,"x_max":302,"ha":302,"o":"m 291 -159 l 220 -159 q 68 14 68 267 q 68 521 220 700 l 292 700 q 139 515 139 268 q 139 23 291 -159 z"},"C":{"x_min":0,"x_max":619,"ha":619,"o":"m 568 29 q 491 -12 375 -12 q 226 -12 136 84 q 46 181 46 337 q 46 505 147 608 q 248 712 403 712 q 503 712 568 683 l 568 596 q 493 638 402 638 q 282 638 207 557 q 132 477 132 342 q 132 214 202 138 q 272 62 386 62 q 491 62 568 109 z"},"W":{"x_min":0,"x_max":934,"ha":934,"o":"m 922 700 l 724 0 l 628 0 l 484 512 q 475 544 473 583 l 471 583 q 468 547 458 513 l 313 0 l 218 0 l 13 700 l 103 700 l 252 163 q 261 129 264 93 l 266 93 q 269 119 281 163 l 436 700 l 515 700 l 663 159 q 671 131 675 94 l 677 94 q 679 119 690 161 l 833 700 z"},"A":{"x_min":0,"x_max":645,"ha":645,"o":"m 634 0 l 543 0 l 469 196 l 172 196 l 102 0 l 11 0 l 279 700 l 364 700 z m 442 270 l 332 568 q 327 583 321 615 l 319 615 q 314 585 308 568 l 199 270 z"},"f":{"x_min":0,"x_max":313,"ha":313,"o":"m 328 670 q 305 683 275 683 q 191 683 191 577 l 191 500 l 308 500 l 308 432 l 191 432 l 191 0 l 111 0 l 111 432 l 26 432 l 26 500 l 111 500 l 111 581 q 111 660 157 705 q 202 751 270 751 q 307 751 328 742 z"},"Q":{"x_min":0,"x_max":754,"ha":754,"o":"m 369 -12 q 338 -12 306 -6 q 273 0 243 13 q 213 25 185 44 q 158 62 135 86 q 46 184 46 342 q 46 511 137 611 q 229 712 388 712 q 530 712 619 614 q 708 517 708 359 q 708 292 693 234 q 678 175 648 127 q 618 80 572 47 q 526 14 463 0 q 489 -27 511 -48 q 533 -69 555 -84 q 578 -98 602 -105 q 625 -113 654 -113 q 662 -113 671 -112 q 681 -111 690 -110 q 700 -108 708 -106 q 717 -104 725 -101 l 725 -180 q 717 -182 707 -184 q 697 -186 687 -187 q 677 -188 667 -189 q 658 -189 649 -189 q 603 -189 565 -176 q 528 -162 495 -137 q 463 -113 433 -81 q 402 -49 369 -12 z m 380 638 q 270 638 201 558 q 132 479 132 349 q 132 220 199 141 q 266 62 374 62 q 489 62 556 137 q 622 212 622 348 q 622 487 558 562 q 493 638 380 638 z"},"w":{"x_min":0,"x_max":723,"ha":723,"o":"m 711 500 l 561 0 l 478 0 l 375 358 q 369 378 367 404 l 365 404 q 364 387 355 359 l 243 0 l 163 0 l 12 500 l 96 500 l 199 124 q 204 107 206 79 l 210 79 q 211 101 219 125 l 334 500 l 407 500 l 511 123 q 516 105 518 78 l 522 78 q 523 97 530 123 l 632 500 z"},"-":{"x_min":0,"x_max":400,"ha":400,"o":"m 337 247 l 70 247 l 70 310 l 337 310 z"},"E":{"x_min":0,"x_max":506,"ha":506,"o":"m 463 0 l 92 0 l 92 700 l 447 700 l 447 626 l 174 626 l 174 393 l 427 393 l 427 319 l 174 319 l 174 74 l 463 74 z"},"s":{"x_min":0,"x_max":424,"ha":424,"o":"m 51 18 l 51 104 q 116 56 195 56 q 300 56 300 126 q 300 146 291 160 q 282 174 267 185 q 251 195 231 204 q 210 212 186 222 q 153 235 128 248 q 103 262 86 279 q 69 295 60 317 q 52 338 52 367 q 52 402 68 429 q 84 457 111 475 q 138 493 172 502 q 207 512 243 512 q 308 512 359 489 l 359 408 q 304 444 232 444 q 210 444 192 439 q 174 434 161 425 q 148 416 141 403 q 134 390 134 374 q 134 354 141 341 q 148 328 162 318 q 175 308 195 299 q 214 291 239 281 q 272 269 299 255 q 325 242 344 225 q 362 208 372 186 q 382 164 382 134 q 382 97 366 69 q 350 42 322 24 q 295 6 259 -3 q 224 -12 185 -12 q 107 -12 51 18 z"},">":{"x_min":0,"x_max":684,"ha":684,"o":"m 553 273 l 133 62 l 133 135 l 447 287 l 447 290 l 133 464 l 133 537 l 553 302 z"},"l":{"x_min":0,"x_max":253,"ha":253,"o":"m 156 140 q 156 71 209 71 q 230 71 248 76 l 248 4 q 238 1 223 -1 q 208 -3 190 -3 q 167 -3 146 5 q 125 13 109 29 q 94 45 85 69 q 76 93 76 125 l 76 740 l 156 740 z"},"8":{"x_min":0,"x_max":539,"ha":539,"o":"m 44 195 q 44 223 53 251 q 62 279 78 304 q 94 328 118 348 q 143 368 173 380 q 128 405 101 445 q 74 485 74 533 q 74 572 89 604 q 104 637 130 661 q 157 685 193 698 q 229 712 271 712 q 313 712 350 698 q 386 685 412 661 q 438 637 453 604 q 468 571 468 533 q 468 485 441 445 q 414 405 370 380 q 400 368 424 348 q 448 328 464 304 q 480 279 489 251 q 498 223 498 195 q 498 149 481 111 q 465 73 435 46 q 405 19 363 4 q 321 -11 271 -11 q 221 -11 180 4 q 138 19 108 46 q 78 73 61 111 q 44 149 44 195 z m 131 202 q 131 169 141 143 q 151 117 169 98 q 188 80 214 70 q 240 60 271 60 q 302 60 328 70 q 354 80 373 99 q 392 117 402 144 q 413 170 413 202 q 413 231 403 257 q 393 283 374 302 q 355 322 330 333 q 304 344 271 344 q 241 344 216 334 q 190 323 171 304 q 152 286 142 260 q 131 233 131 202 z m 156 527 q 156 502 165 481 q 174 459 190 444 q 206 428 227 419 q 248 410 271 410 q 295 410 317 419 q 338 428 354 444 q 369 460 378 481 q 388 502 388 527 q 388 552 379 574 q 370 595 354 611 q 338 626 317 635 q 296 645 271 645 q 246 645 224 635 q 203 626 188 610 q 172 594 164 573 q 156 551 156 527 z"},"\\":{"x_min":0,"x_max":379,"ha":379,"o":"m 390 -117 l 316 -117 l -13 700 l 63 700 z"},"e":{"x_min":0,"x_max":523,"ha":523,"o":"m 483 230 l 130 230 q 132 146 175 101 q 218 56 293 56 q 377 56 448 111 l 448 36 q 382 -12 274 -12 q 168 -12 107 56 q 47 125 47 248 q 47 365 113 438 q 179 512 277 512 q 375 512 429 448 q 483 385 483 272 z m 401 298 q 400 367 367 406 q 334 444 276 444 q 219 444 180 404 q 140 363 131 298 z"},"b":{"x_min":0,"x_max":588,"ha":588,"o":"m 163 72 l 161 72 l 161 0 l 81 0 l 81 740 l 161 740 l 161 412 l 163 412 q 222 512 336 512 q 432 512 487 445 q 541 377 541 265 q 541 139 480 64 q 419 -12 313 -12 q 214 -12 163 72 z m 161 274 l 161 204 q 161 142 201 99 q 242 56 304 56 q 376 56 418 111 q 459 167 459 266 q 459 350 420 397 q 382 444 316 444 q 246 444 204 396 q 161 347 161 274 z"},"%":{"x_min":0,"x_max":818,"ha":818,"o":"m 197 349 q 125 349 82 397 q 39 444 39 524 q 39 611 84 661 q 130 711 207 711 q 282 711 323 665 q 364 618 364 534 q 364 450 318 400 q 272 349 197 349 z m 204 657 q 158 657 131 623 q 104 588 104 528 q 104 469 130 436 q 157 403 202 403 q 248 403 274 438 q 300 472 300 532 q 300 591 274 624 q 249 657 204 657 z m 666 700 l 217 -5 l 147 -5 l 596 700 z m 614 -11 q 542 -11 499 37 q 456 85 456 164 q 456 251 502 302 q 548 352 624 352 q 698 352 740 305 q 781 258 781 174 q 781 90 735 40 q 689 -11 614 -11 z m 621 297 q 574 297 548 263 q 521 229 521 168 q 521 110 547 77 q 574 44 619 44 q 665 44 691 78 q 717 113 717 173 q 717 232 691 265 q 666 297 621 297 z"},"m":{"x_min":0,"x_max":861,"ha":861,"o":"m 791 0 l 711 0 l 711 287 q 711 370 685 407 q 660 444 599 444 q 548 444 512 397 q 476 351 476 285 l 476 0 l 396 0 l 396 297 q 396 444 282 444 q 229 444 195 400 q 161 356 161 285 l 161 0 l 81 0 l 81 500 l 161 500 l 161 421 l 163 421 q 216 512 318 512 q 370 512 408 483 q 446 455 460 408 q 516 512 626 512 q 791 512 791 308 z"},"#":{"x_min":0,"x_max":591,"ha":591,"o":"m 569 504 l 558 452 l 431 452 l 400 306 l 537 306 l 524 254 l 390 254 l 347 60 l 285 60 l 327 254 l 205 254 l 164 60 l 103 60 l 144 254 l 16 254 l 26 306 l 155 306 l 185 452 l 50 452 l 60 504 l 195 504 l 236 700 l 298 700 l 257 504 l 380 504 l 422 700 l 482 700 l 441 504 z m 370 452 l 247 452 l 215 306 l 339 306 z"},",":{"x_min":0,"x_max":217,"ha":217,"o":"m 154 111 l 76 -129 l 19 -129 l 76 111 z"},"n":{"x_min":0,"x_max":566,"ha":566,"o":"m 496 0 l 416 0 l 416 285 q 416 444 300 444 q 240 444 200 399 q 161 354 161 285 l 161 0 l 81 0 l 81 500 l 161 500 l 161 417 l 163 417 q 220 512 327 512 q 409 512 453 459 q 496 406 496 306 z"},"h":{"x_min":0,"x_max":566,"ha":566,"o":"m 496 0 l 416 0 l 416 288 q 416 444 300 444 q 241 444 201 399 q 161 354 161 283 l 161 0 l 81 0 l 81 740 l 161 740 l 161 417 l 163 417 q 221 512 327 512 q 496 512 496 308 z"},"z":{"x_min":0,"x_max":452,"ha":452,"o":"m 430 477 l 134 68 l 427 68 l 427 0 l 16 0 l 16 25 l 312 432 l 44 432 l 44 500 l 430 500 z"},"B":{"x_min":0,"x_max":573,"ha":573,"o":"m 92 0 l 92 700 l 291 700 q 382 700 435 656 q 488 611 488 540 q 488 480 456 437 q 424 393 367 374 l 367 372 q 438 364 480 319 q 523 273 523 201 q 523 111 458 56 q 394 0 296 0 z m 174 626 l 174 400 l 258 400 q 325 400 364 432 q 402 465 402 524 q 402 626 268 626 z m 174 326 l 174 74 l 285 74 q 357 74 397 108 q 437 143 437 202 q 437 326 268 326 z"},"K":{"x_min":0,"x_max":580,"ha":580,"o":"m 579 0 l 465 0 l 194 320 q 179 338 176 345 l 174 345 l 174 0 l 92 0 l 92 700 l 174 700 l 174 371 l 176 371 q 183 382 194 395 l 456 700 l 558 700 l 258 364 z"},"R":{"x_min":0,"x_max":598,"ha":598,"o":"m 594 0 l 496 0 l 379 196 q 363 224 348 243 q 333 262 317 274 q 301 287 282 292 q 264 298 241 298 l 174 298 l 174 0 l 92 0 l 92 700 l 301 700 q 347 700 385 689 q 424 677 453 654 q 481 630 498 595 q 514 561 514 514 q 514 477 503 447 q 492 416 471 392 q 451 368 423 351 q 394 334 358 325 l 358 323 q 376 315 389 305 q 402 295 414 282 q 425 268 437 251 q 448 233 462 210 z m 174 626 l 174 372 l 285 372 q 316 372 342 381 q 368 391 387 408 q 406 425 417 450 q 428 476 428 507 q 428 563 391 594 q 355 626 286 626 z"},"T":{"x_min":0,"x_max":524,"ha":524,"o":"m 506 626 l 304 626 l 304 0 l 222 0 l 222 626 l 20 626 l 20 700 l 506 700 z"},"P":{"x_min":0,"x_max":560,"ha":560,"o":"m 174 265 l 174 0 l 92 0 l 92 700 l 284 700 q 396 700 458 646 q 520 591 520 491 q 520 392 451 328 q 383 265 266 265 z m 174 626 l 174 339 l 260 339 q 345 339 389 378 q 434 417 434 487 q 434 626 270 626 z"},"|":{"x_min":0,"x_max":239,"ha":239,"o":"m 156 -235 l 84 -235 l 84 765 l 156 765 z"},"t":{"x_min":0,"x_max":339,"ha":339,"o":"m 313 5 q 285 -11 238 -11 q 107 -11 107 136 l 107 432 l 21 432 l 21 500 l 107 500 l 107 622 l 187 648 l 187 500 l 313 500 l 313 432 l 187 432 l 187 150 q 187 100 204 78 q 221 57 261 57 q 291 57 313 73 z"},"M":{"x_min":0,"x_max":819,"ha":819,"o":"m 728 0 l 646 0 l 646 470 q 646 498 648 533 q 649 568 653 609 l 651 609 q 648 597 642 583 q 636 568 630 555 q 623 542 617 531 q 612 520 609 515 l 430 183 l 390 183 l 210 514 q 208 520 202 531 q 196 542 189 555 q 183 568 177 583 q 172 597 169 609 l 167 609 q 169 588 170 552 q 171 517 171 469 l 171 0 l 92 0 l 92 700 l 194 700 l 376 367 q 388 345 396 326 q 404 307 408 293 l 411 293 q 416 308 424 327 q 432 347 445 369 l 626 700 l 728 700 z"},"g":{"x_min":0,"x_max":589,"ha":589,"o":"m 508 40 q 508 -235 244 -235 q 151 -235 82 -200 l 82 -120 q 167 -167 243 -167 q 428 -167 428 29 l 428 84 l 426 84 q 369 -12 254 -12 q 161 -12 104 55 q 47 122 47 234 q 47 361 108 437 q 169 512 276 512 q 377 512 426 431 l 428 431 l 428 500 l 508 500 z m 428 226 l 428 300 q 428 359 387 402 q 347 444 287 444 q 213 444 171 390 q 129 336 129 239 q 129 156 169 106 q 209 56 276 56 q 343 56 385 104 q 428 151 428 226 z"},"j":{"x_min":0,"x_max":242,"ha":242,"o":"m 161 21 q 161 -102 112 -169 q 62 -235 -30 -235 q -64 -235 -97 -220 l -97 -145 q -61 -167 -28 -167 q 81 -167 81 8 l 81 500 l 161 500 z m 122 627 q 101 627 85 642 q 70 656 70 679 q 70 701 85 716 q 101 731 122 731 q 144 731 159 716 q 175 701 175 679 q 175 657 159 642 q 144 627 122 627 z"},"i":{"x_min":0,"x_max":253,"ha":253,"o":"m 117 627 q 95 627 80 642 q 65 656 65 679 q 65 701 80 716 q 95 731 117 731 q 139 731 154 716 q 169 701 169 679 q 169 657 154 642 q 139 627 117 627 z m 156 140 q 156 71 209 71 q 230 71 248 76 l 248 4 q 238 1 223 -1 q 208 -3 190 -3 q 167 -3 146 5 q 125 13 109 29 q 94 45 85 69 q 76 93 76 125 l 76 500 l 156 500 z"},"y":{"x_min":0,"x_max":484,"ha":484,"o":"m 479 500 l 249 -80 q 188 -235 76 -235 q 45 -235 24 -229 l 24 -157 q 50 -166 71 -166 q 132 -166 162 -94 l 202 1 l 7 500 l 96 500 l 231 115 q 233 108 241 77 l 244 77 q 247 89 254 114 l 396 500 z"},"@":{"x_min":0,"x_max":955,"ha":955,"o":"m 568 205 l 566 205 q 530 89 426 89 q 359 89 318 138 q 277 188 277 271 q 277 381 334 454 q 390 527 482 527 q 517 527 545 509 q 572 491 580 464 l 582 464 q 583 478 587 520 l 648 520 q 625 251 625 246 q 625 145 683 145 q 736 145 771 202 q 806 259 806 350 q 806 484 721 569 q 636 654 485 654 q 340 654 246 553 q 151 451 151 299 q 151 149 241 57 q 331 -35 484 -35 q 604 -35 690 5 l 690 -56 q 605 -92 479 -92 q 301 -92 193 15 q 84 123 84 296 q 84 475 198 592 q 312 710 489 710 q 655 710 764 611 q 873 513 873 354 q 873 238 816 163 q 758 89 676 89 q 569 89 568 205 z m 481 471 q 420 471 383 413 q 346 355 346 270 q 346 212 371 179 q 396 146 438 146 q 499 146 534 206 q 569 267 569 366 q 569 471 481 471 z"},".":{"x_min":0,"x_max":217,"ha":217,"o":"m 109 -11 q 86 -11 71 5 q 55 21 55 44 q 55 66 71 83 q 86 99 109 99 q 132 99 148 83 q 164 66 164 44 q 164 21 148 5 q 132 -11 109 -11 z"},"p":{"x_min":0,"x_max":588,"ha":588,"o":"m 163 72 l 161 72 l 161 -230 l 81 -230 l 81 500 l 161 500 l 161 412 l 163 412 q 222 512 336 512 q 433 512 487 445 q 541 377 541 265 q 541 139 480 64 q 419 -12 313 -12 q 216 -12 163 72 z m 161 274 l 161 204 q 161 142 201 99 q 242 56 304 56 q 376 56 418 111 q 459 167 459 266 q 459 350 420 397 q 382 444 316 444 q 246 444 204 396 q 161 347 161 274 z"},"X":{"x_min":0,"x_max":590,"ha":590,"o":"m 575 0 l 475 0 l 314 268 q 307 280 298 303 l 296 303 q 291 292 279 268 l 113 0 l 13 0 l 247 352 l 31 700 l 132 700 l 275 454 q 289 430 300 405 l 302 405 q 317 438 329 456 l 478 700 l 572 700 l 352 353 z"},"*":{"x_min":0,"x_max":417,"ha":417,"o":"m 381 539 l 247 512 l 340 393 l 286 356 l 210 485 l 133 356 l 79 393 l 172 512 l 37 539 l 59 600 l 187 552 l 176 700 l 243 700 l 232 552 l 360 600 z"},"Y":{"x_min":0,"x_max":553,"ha":553,"o":"m 547 700 l 316 259 l 316 0 l 234 0 l 234 257 l 9 700 l 102 700 l 259 384 q 262 378 276 341 l 277 341 q 282 357 296 384 l 460 700 z"},"c":{"x_min":0,"x_max":462,"ha":462,"o":"m 422 23 q 364 -12 285 -12 q 178 -12 113 58 q 47 127 47 238 q 47 362 118 437 q 188 512 307 512 q 373 512 423 487 l 423 405 q 367 444 304 444 q 227 444 178 389 q 129 334 129 245 q 129 157 175 106 q 221 56 299 56 q 364 56 422 99 z"},"!":{"x_min":0,"x_max":284,"ha":284,"o":"m 183 700 l 174 197 l 108 197 l 99 700 z m 142 -9 q 120 -9 104 7 q 88 22 88 45 q 88 67 104 83 q 120 99 142 99 q 164 99 180 83 q 196 67 196 45 q 196 22 180 7 q 164 -9 142 -9 z"},"/":{"x_min":0,"x_max":390,"ha":390,"o":"m 397 700 l 61 -116 l -14 -116 l 321 700 z"},"[":{"x_min":0,"x_max":302,"ha":302,"o":"m 277 -159 l 98 -159 l 98 700 l 277 700 l 277 642 l 169 642 l 169 -101 l 277 -101 z"},"6":{"x_min":0,"x_max":539,"ha":539,"o":"m 499 222 q 499 171 482 128 q 466 85 437 54 q 407 22 367 5 q 326 -12 279 -12 q 226 -12 184 10 q 143 32 114 73 q 84 114 69 174 q 54 233 54 308 q 54 399 74 474 q 95 548 132 601 q 169 654 222 683 q 275 712 340 712 q 412 712 456 692 l 456 616 q 402 644 342 644 q 295 644 257 623 q 220 602 193 564 q 166 525 152 471 q 137 417 137 351 l 139 351 q 188 438 299 438 q 345 438 382 422 q 418 407 445 378 q 471 350 485 310 q 499 271 499 222 z m 417 212 q 417 249 408 278 q 398 307 381 328 q 364 348 338 359 q 313 370 281 370 q 251 370 226 359 q 200 348 182 328 q 163 309 153 283 q 142 258 142 229 q 142 193 152 161 q 163 130 181 106 q 200 83 225 70 q 251 56 282 56 q 312 56 337 68 q 362 79 380 100 q 397 120 407 149 q 417 177 417 212 z"},"r":{"x_min":0,"x_max":348,"ha":348,"o":"m 342 419 q 321 435 281 435 q 230 435 196 387 q 161 338 161 255 l 161 0 l 81 0 l 81 500 l 161 500 l 161 397 l 163 397 q 180 450 215 479 q 250 509 294 509 q 325 509 342 502 z"},"2":{"x_min":0,"x_max":539,"ha":539,"o":"m 377 517 q 377 549 367 573 q 357 597 340 613 q 322 628 299 636 q 275 644 248 644 q 225 644 202 638 q 180 631 158 620 q 137 609 117 593 q 98 578 81 559 l 81 645 q 114 677 156 695 q 198 712 258 712 q 301 712 337 699 q 374 687 401 663 q 428 639 443 604 q 458 569 458 523 q 458 482 449 448 q 439 415 420 385 q 401 355 372 328 q 342 300 303 272 q 253 237 221 212 q 189 187 171 165 q 152 144 144 122 q 137 100 137 72 l 485 72 l 485 0 l 53 0 l 53 35 q 53 80 63 114 q 73 148 95 179 q 118 209 154 240 q 190 271 243 310 q 281 337 307 362 q 333 387 348 412 q 364 437 370 462 q 377 488 377 517 z"},"{":{"x_min":0,"x_max":302,"ha":302,"o":"m 271 -159 q 121 -157 121 -8 l 121 139 q 121 237 45 242 l 45 299 q 121 304 121 404 l 121 547 q 121 698 271 700 l 271 638 q 193 636 193 541 l 193 398 q 193 295 120 272 l 120 270 q 193 248 193 145 l 193 4 q 193 -50 211 -73 q 228 -97 271 -98 z"},"9":{"x_min":0,"x_max":539,"ha":539,"o":"m 490 392 q 490 296 471 221 q 452 146 416 94 q 379 42 326 15 q 273 -12 206 -12 q 137 -12 84 12 l 84 89 q 142 56 208 56 q 255 56 293 76 q 330 95 356 133 q 382 170 396 225 q 409 279 409 350 l 407 350 q 362 260 251 260 q 206 260 168 276 q 131 292 104 321 q 76 350 61 390 q 46 430 46 478 q 46 530 63 573 q 80 616 110 647 q 140 678 181 695 q 222 712 271 712 q 324 712 365 691 q 405 669 433 629 q 461 588 476 528 q 490 469 490 392 z m 404 464 q 404 504 393 538 q 383 571 364 594 q 346 618 320 631 q 294 644 264 644 q 235 644 210 633 q 186 621 167 600 q 149 580 138 551 q 128 522 128 489 q 128 452 138 422 q 148 393 167 373 q 185 353 211 342 q 237 331 269 331 q 297 331 322 342 q 346 352 365 370 q 383 388 393 412 q 404 436 404 464 z"}," ":{"x_min":0,"x_max":274,"ha":274,"o":""},"I":{"x_min":0,"x_max":266,"ha":266,"o":"m 174 0 l 92 0 l 92 700 l 174 700 z"},"H":{"x_min":0,"x_max":710,"ha":710,"o":"m 618 0 l 536 0 l 536 319 l 174 319 l 174 0 l 92 0 l 92 700 l 174 700 l 174 393 l 536 393 l 536 700 l 618 700 z"},"4":{"x_min":0,"x_max":539,"ha":539,"o":"m 415 700 l 415 238 l 505 238 l 505 165 l 415 165 l 415 0 l 336 0 l 336 165 l 7 165 l 7 234 q 53 286 100 344 q 146 403 189 464 q 232 524 268 585 q 305 645 330 700 z m 97 238 l 336 238 l 336 581 q 299 517 267 466 q 234 416 204 375 q 175 334 148 301 q 121 268 97 238 z"},"~":{"x_min":0,"x_max":684,"ha":684,"o":"m 583 366 q 580 294 544 254 q 508 215 446 215 q 393 215 317 268 q 270 301 239 301 q 171 301 168 215 l 102 215 q 104 285 141 325 q 177 366 239 366 q 291 366 354 323 q 418 279 450 279 q 480 279 498 303 q 516 327 517 366 z"},"D":{"x_min":0,"x_max":701,"ha":701,"o":"m 92 0 l 92 700 l 285 700 q 655 700 655 359 q 655 197 552 98 q 450 0 277 0 z m 174 626 l 174 74 l 278 74 q 416 74 493 148 q 569 222 569 357 q 569 626 283 626 z"},"^":{"x_min":0,"x_max":684,"ha":684,"o":"m 573 305 l 500 305 l 338 607 l 335 607 l 184 305 l 112 305 l 318 712 l 350 712 z"},"0":{"x_min":0,"x_max":539,"ha":539,"o":"m 498 353 q 498 265 482 197 q 466 129 436 83 q 406 36 363 12 q 319 -12 263 -12 q 210 -12 169 11 q 128 34 100 79 q 71 123 57 188 q 42 252 42 336 q 42 428 57 498 q 73 568 103 616 q 132 664 177 688 q 221 712 278 712 q 498 712 498 353 z m 416 345 q 416 644 274 644 q 124 644 124 340 q 124 56 271 56 q 416 56 416 345 z"},"F":{"x_min":0,"x_max":488,"ha":488,"o":"m 447 626 l 174 626 l 174 384 l 427 384 l 427 310 l 174 310 l 174 0 l 92 0 l 92 700 l 447 700 z"},"`":{"x_min":0,"x_max":268,"ha":268,"o":"m 230 595 l 168 595 l 40 755 l 122 755 z"},"k":{"x_min":0,"x_max":497,"ha":497,"o":"m 496 0 l 384 0 l 163 240 l 161 240 l 161 0 l 81 0 l 81 740 l 161 740 l 161 271 l 163 271 l 373 500 l 478 500 l 246 259 z"},"u":{"x_min":0,"x_max":566,"ha":566,"o":"m 485 0 l 405 0 l 405 79 l 403 79 q 354 -12 249 -12 q 70 -12 70 201 l 70 500 l 150 500 l 150 214 q 150 56 271 56 q 330 56 367 99 q 405 142 405 212 l 405 500 l 485 500 z"},"]":{"x_min":0,"x_max":302,"ha":302,"o":"m 205 -159 l 26 -159 l 26 -101 l 134 -101 l 134 642 l 26 642 l 26 700 l 205 700 z"},"U":{"x_min":0,"x_max":687,"ha":687,"o":"m 604 283 q 604 -12 338 -12 q 83 -12 83 272 l 83 700 l 165 700 l 165 277 q 165 62 347 62 q 522 62 522 270 l 522 700 l 604 700 z"},"o":{"x_min":0,"x_max":586,"ha":586,"o":"m 290 -12 q 179 -12 113 58 q 47 128 47 244 q 47 370 116 441 q 185 512 302 512 q 414 512 476 443 q 539 374 539 252 q 539 132 471 60 q 404 -12 290 -12 z m 296 444 q 219 444 174 392 q 129 339 129 247 q 129 158 174 107 q 220 56 296 56 q 374 56 415 106 q 457 156 457 249 q 457 343 415 394 q 374 444 296 444 z"},"N":{"x_min":0,"x_max":748,"ha":748,"o":"m 656 0 l 556 0 l 195 558 q 182 579 173 602 l 170 602 q 174 580 174 506 l 174 0 l 92 0 l 92 700 l 198 700 l 549 151 q 571 117 577 104 l 579 104 q 574 134 574 207 l 574 700 l 656 700 z"},"+":{"x_min":0,"x_max":684,"ha":684,"o":"m 572 259 l 375 259 l 375 62 l 310 62 l 310 259 l 113 259 l 113 324 l 310 324 l 310 521 l 375 521 l 375 324 l 572 324 z"},"G":{"x_min":0,"x_max":686,"ha":686,"o":"m 615 48 q 510 -12 381 -12 q 231 -12 138 85 q 46 182 46 341 q 46 503 149 608 q 251 712 409 712 q 523 712 601 675 l 601 584 q 516 638 400 638 q 282 638 207 557 q 132 476 132 347 q 132 214 202 138 q 271 62 391 62 q 473 62 533 95 l 533 291 l 380 291 l 380 365 l 615 365 z"},"q":{"x_min":0,"x_max":589,"ha":589,"o":"m 508 -230 l 428 -230 l 428 86 l 426 86 q 374 -12 255 -12 q 161 -12 104 55 q 47 123 47 238 q 47 363 109 437 q 172 512 277 512 q 380 512 426 431 l 428 431 l 428 500 l 508 500 z m 428 225 l 428 298 q 428 359 387 402 q 347 444 285 444 q 213 444 171 391 q 129 337 129 240 q 129 154 169 105 q 210 56 274 56 q 344 56 386 104 q 428 152 428 225 z"},"d":{"x_min":0,"x_max":589,"ha":589,"o":"m 508 0 l 428 0 l 428 85 l 426 85 q 370 -12 254 -12 q 160 -12 103 55 q 47 123 47 238 q 47 362 109 437 q 172 512 276 512 q 379 512 426 431 l 428 431 l 428 740 l 508 740 z m 428 226 l 428 300 q 428 360 388 402 q 348 444 286 444 q 213 444 171 391 q 129 337 129 242 q 129 156 169 106 q 209 56 277 56 q 344 56 386 104 q 428 152 428 226 z"},"1":{"x_min":0,"x_max":539,"ha":539,"o":"m 354 0 l 273 0 l 273 605 q 264 596 246 584 q 229 572 206 560 q 184 548 159 538 q 135 528 111 522 l 111 603 q 138 610 167 623 q 197 635 225 651 q 254 666 279 683 q 305 700 323 716 l 354 716 z"},"5":{"x_min":0,"x_max":539,"ha":539,"o":"m 473 214 q 473 163 456 121 q 438 80 406 50 q 373 20 327 4 q 281 -12 225 -12 q 127 -12 80 17 l 80 102 q 151 56 226 56 q 264 56 295 67 q 325 79 347 99 q 368 119 380 147 q 391 175 391 209 q 391 277 345 316 q 299 355 212 355 q 198 355 182 354 q 167 354 151 353 q 135 353 120 352 q 105 351 93 349 l 117 700 l 441 700 l 441 628 l 187 628 l 172 422 q 188 423 206 424 q 223 425 237 425 q 292 425 336 410 q 380 396 411 368 q 441 341 457 302 q 473 263 473 214 z"}}}
